# xmcd
#
# Track frame offsets:
#	300
#	18057
#	32667
#	50441
#	68141
#	85643
#	101320
#	118863
#	134641
#	153056
#	166108
#	195250
#
# Disc length: 4440 seconds
#
# Revision: 0
# Processed by: cddbd v1.5.1PL0 Copyright (c) Steve Scherf et al.
# Submitted via: audiograbber 1.83.01
#
DISCID=8811540c
DTITLE=nocaden - Katarzia
DYEAR=1900
DGENRE=
TTITLE0=V ziare noci
TTITLE1=Letis - padas
TTITLE2=Bud hviezda (co svieti mi nad hlavou)
TTITLE3=Kym nas smrt nerozdeli
TTITLE4=Las Vegas
TTITLE5=Pre nas dvoch
TTITLE6=Oceany
TTITLE7=Svetelny luc
TTITLE8=Izba s ciernym klavirom
TTITLE9=Koniec
TTITLE10=Katarzia
TTITLE11=Data Track
EXTD=
EXTT0=
EXTT1=
EXTT2=
EXTT3=
EXTT4=
EXTT5=
EXTT6=
EXTT7=
EXTT8=
EXTT9=
EXTT10=
EXTT11=
PLAYORDER=
